<?xml version="1.0" encoding="UTF-8"?>
<!DOCTYPE svg PUBLIC "-//W3C//DTD SVG 1.1//EN" "http://www.w3.org/Graphics/SVG/1.1/DTD/svg11.dtd">
<!-- Creator: CorelDRAW 2019 (64-Bit) -->
<svg xmlns="http://www.w3.org/2000/svg" xml:space="preserve" width="926.937mm" height="926.935mm" version="1.1" style="shape-rendering:geometricPrecision; text-rendering:geometricPrecision; image-rendering:optimizeQuality; fill-rule:evenodd; clip-rule:evenodd"
viewBox="0 0 22795.59 22795.56"
 xmlns:xlink="http://www.w3.org/1999/xlink"
 xmlns:xodm="http://www.corel.com/coreldraw/odm/2003">
 <defs>
  <style type="text/css">
   <![CDATA[
    .fil0 {fill:black}
    .fil2 {fill:#037C1F}
    .fil3 {fill:#393B3C}
    .fil4 {fill:#585D5E}
    .fil5 {fill:white}
    .fil1 {fill:white;fill-rule:nonzero}
   ]]>
  </style>
 </defs>
 <g id="Capa_x0020_1">
  <metadata id="CorelCorpID_0Corel-Layer"/>
  <path class="fil0" d="M9614.96 141.73c6212.43,-984.02 12054.95,3260.84 13038.92,9473.22 983.94,6212.43 -3260.92,12054.95 -9473.3,13038.89 -6212.43,983.94 -12054.93,-3260.89 -13038.87,-9473.28 -983.94,-6212.43 3260.89,-12054.95 9473.25,-13038.84z"/>
  <path class="fil0" d="M9853.83 1649.59c5380.16,-852.1 10439.98,2824.08 11292.11,8204.23 852.13,5380.16 -2824.05,10439.96 -8204.21,11292.09 -5380.18,852.13 -10439.96,-2824.05 -11292.09,-8204.18 -852.13,-5380.18 2824.03,-10439.93 8204.18,-11292.14z"/>
  <path class="fil1" d="M11396.05 909.91c6.68,0 11.64,-1.3 14.69,-3.84 3.13,-2.46 5.21,-7.68 6.33,-15.55l10.07 0 0 135.55 -10.07 0c-1.12,-7.88 -3.53,-12.63 -7.17,-14.31 -3.63,-1.7 -9.68,-2.54 -18.1,-2.54l-373.73 0c-5.67,0 -9.84,0.84 -12.71,2.54 -2.8,1.68 -4.14,6.43 -4.14,14.31l-10.09 0c-1.17,-24.65 2.21,-47.43 10.09,-68.19 7.8,-20.77 18.78,-39.83 32.79,-57.27 14.06,-17.36 30.45,-33.37 49.26,-47.94 18.81,-14.59 38.46,-28.06 58.94,-40.41 20.51,-12.38 41.13,-24.15 61.89,-35.41 20.74,-11.18 40.39,-22.44 58.89,-33.63 8.44,-5.08 14.64,-10.42 18.53,-16.01 3.92,-5.59 5.92,-13.22 5.92,-22.72 0,-10.65 -4.63,-20.61 -13.93,-29.91 -9.23,-9.25 -24.53,-13.85 -45.88,-13.85 -19.65,0 -38,3.1 -55.1,9.23 -17.1,6.18 -32.15,13.47 -45.09,21.93 -12.89,8.39 -22.98,16.98 -30.25,25.62 -7.37,8.72 -10.93,15.89 -10.93,21.48 0,3.38 1.09,7.63 3.31,12.63l-10.09 7.6 -89.19 -125.43 9.23 -6.71c1.7,1.63 3.79,3.18 6.3,4.63 2.54,1.37 5.46,2.09 8.87,2.09 4.47,0 11.9,-3.79 22.32,-11.39 10.34,-7.55 24.27,-15.81 41.63,-24.81 17.97,-9.56 39.04,-17.95 63.11,-25.29 24.15,-7.29 52.18,-10.95 84.21,-10.95 24.15,0 47.17,3.66 69.03,10.95 21.86,7.35 41.25,17.28 58.1,29.92 16.85,12.63 30.32,27.78 40.41,45.42 10.09,17.69 15.15,37.21 15.15,58.56 0,20.77 -4.35,38.71 -13.06,53.88 -8.67,15.15 -20.06,28.41 -34.11,39.96 -13.98,11.51 -29.87,21.73 -47.55,30.7 -17.64,8.97 -35.46,17.56 -53.43,25.7 -17.95,8.13 -35.13,16.39 -51.39,24.86 -16.27,8.39 -29.99,17.97 -41.25,28.62l228.19 0z"/>
  <path class="fil1" d="M11730.24 561.34c31.42,0 60.9,5.79 88.35,17.31 27.53,11.46 51.8,27.35 72.89,47.58 20.99,20.16 37.54,44.05 49.64,71.5 12.02,27.53 18.1,57.52 18.1,90.13 0,32.53 -6.07,62.53 -18.1,90.05 -12.1,27.53 -28.65,51.34 -49.64,71.57 -21.1,20.16 -45.37,35.59 -72.89,46.26 -27.45,10.68 -56.93,16.01 -88.35,16.01 -30.86,0 -60.19,-5.34 -87.97,-16.01 -27.78,-10.67 -52.18,-26.1 -73.28,-46.26 -21.02,-20.23 -37.54,-44.05 -49.64,-71.57 -12.05,-27.53 -18.1,-57.52 -18.1,-90.05 0,-32.61 6.05,-62.6 18.1,-90.13 12.1,-27.45 28.62,-51.34 49.64,-71.5 21.1,-20.23 45.5,-36.12 73.28,-47.58 27.78,-11.51 57.11,-17.31 87.97,-17.31zm0 99.38c-18.55,0 -34.36,3.63 -47.55,10.93 -13.22,7.27 -24.02,16.98 -32.41,29.08 -8.46,12.05 -14.59,25.64 -18.55,40.79 -3.92,15.17 -5.85,30.58 -5.85,46.33 0,15.68 1.93,31.08 5.85,46.26 3.96,15.15 10.09,28.75 18.55,40.87 8.39,12.02 19.19,21.73 32.41,29 13.19,7.29 29,10.93 47.55,10.93 18.53,0 34.37,-3.63 47.56,-10.93 13.22,-7.27 24.02,-16.98 32.41,-29 8.39,-12.12 14.59,-25.72 18.55,-40.87 3.89,-15.17 5.85,-30.58 5.85,-46.26 0,-15.76 -1.96,-31.16 -5.85,-46.33 -3.96,-15.15 -10.17,-28.75 -18.55,-40.79 -8.39,-12.1 -19.19,-21.81 -32.41,-29.08 -13.19,-7.29 -29.03,-10.93 -47.56,-10.93z"/>
  <path class="fil1" d="M14691.77 1083.33l10.17 0c0,2.8 0.38,6.84 1.22,12.22 0.87,5.26 3.53,7.93 8.01,7.93 1.12,0 4.24,-0.97 9.25,-2.92 5.06,-1.96 10.68,-4.04 16.85,-6.3 6.18,-2.21 12.1,-4.5 17.69,-6.71 5.59,-2.26 9.25,-3.71 10.93,-4.22l0 -26.94c0,-6.18 -1.96,-10.09 -5.92,-11.77 -3.89,-1.7 -7.55,-2.82 -10.93,-3.41l0 -10.07 165.01 0 0 10.07c-6.18,0.59 -11.39,1.7 -15.55,3.41 -4.22,1.68 -6.3,5.59 -6.3,11.77l0 392.29c0,6.18 2.08,10.09 6.3,11.79 4.17,1.68 8.87,2.8 13.88,3.38l0 10.07 -167.5 0 0 -10.07c5.59,-0.58 10.47,-1.7 14.72,-3.38 4.22,-1.7 6.3,-5.62 6.3,-11.79l0 -267.69c-14.06,3.33 -25.37,6.13 -34.09,8.41 -8.72,2.26 -15.17,4.6 -19.39,7.14 -4.17,2.54 -6.96,5.46 -8.39,8.85 -1.45,3.38 -2.09,7.88 -2.09,13.47l-10.17 0 0 -135.52z"/>
  <path class="fil1" d="M17387.72 2680.27l10.14 0c0,2.8 0.38,6.84 1.25,12.17 0.84,5.31 3.51,7.98 8.01,7.98 1.09,0 4.22,-0.97 9.22,-2.92 5.08,-1.96 10.68,-4.09 16.85,-6.3 6.18,-2.29 12.05,-4.5 17.71,-6.76 5.59,-2.21 9.23,-3.66 10.93,-4.17l0 -26.94c0,-6.18 -1.96,-10.09 -5.92,-11.77 -3.91,-1.7 -7.55,-2.8 -10.93,-3.38l0 -10.09 165.01 0 0 10.09c-6.18,0.58 -11.39,1.68 -15.55,3.38 -4.24,1.68 -6.31,5.59 -6.31,11.77l0 392.29c0,6.18 2.06,10.09 6.31,11.79 4.17,1.68 8.84,2.8 13.85,3.38l0 10.09 -167.55 0 0 -10.09c5.67,-0.58 10.55,-1.7 14.77,-3.38 4.24,-1.7 6.33,-5.62 6.33,-11.79l0 -267.69c-14.05,3.33 -25.39,6.13 -34.11,8.41 -8.72,2.21 -15.15,4.6 -19.39,7.14 -4.17,2.54 -6.96,5.46 -8.39,8.85 -1.42,3.41 -2.09,7.88 -2.09,13.47l-10.14 0 0 -135.52z"/>
  <path class="fil1" d="M18030.05 2798.11c7.88,0 16.27,-0.71 25.24,-2.08 9,-1.42 17.44,-3.76 25.26,-7.17 7.85,-3.38 14.44,-8.13 19.77,-14.31 5.34,-6.18 8.01,-13.73 8.01,-22.7 0,-9.56 -2.67,-17.31 -8.01,-23.18 -5.34,-5.9 -11.92,-10.52 -19.77,-13.9 -7.83,-3.33 -16.27,-5.74 -25.26,-7.17 -8.97,-1.37 -17.36,-2.08 -25.24,-2.08 -7.29,0 -15.55,0.71 -24.86,2.08 -9.23,1.42 -17.77,3.84 -25.62,7.17 -7.88,3.38 -14.46,8 -19.8,13.9 -5.34,5.87 -8.01,13.62 -8.01,23.18 0,8.97 2.67,16.52 8.01,22.7 5.34,6.18 11.92,10.93 19.8,14.31 7.85,3.41 16.39,5.74 25.62,7.17 9.3,1.37 17.56,2.08 24.86,2.08zm0 85.88c-8.39,0 -18.22,0.71 -29.48,2.09 -11.18,1.42 -21.99,4.09 -32.38,8 -10.37,3.97 -19.09,9.56 -26.1,16.85 -7.04,7.29 -10.55,16.52 -10.55,27.78 0,11.18 3.51,20.51 10.55,27.78 7.01,7.3 15.73,12.89 26.1,16.85 10.4,3.91 21.2,6.58 32.38,7.96 11.26,1.42 21.1,2.13 29.48,2.13 8.39,0 18.22,-0.71 29.48,-2.13 11.18,-1.37 21.99,-4.04 32.41,-7.96 10.4,-3.97 19.06,-9.56 26.08,-16.85 7.04,-7.27 10.55,-16.6 10.55,-27.78 0,-11.26 -3.51,-20.49 -10.55,-27.78 -7.01,-7.3 -15.68,-12.89 -26.08,-16.85 -10.42,-3.91 -21.22,-6.58 -32.41,-8 -11.26,-1.37 -21.1,-2.09 -29.48,-2.09zm0 -260.98c16.27,0 35.79,1.55 58.51,4.63 22.77,3.13 44.63,9.1 65.65,18.07 21.07,9 38.89,21.48 53.48,37.49 14.56,16.01 21.86,37.21 21.86,63.57 0,22.44 -6.43,41 -19.32,55.56 -12.96,14.59 -28.9,26.36 -48.04,35.33 25.26,9 46.21,21.35 62.73,37.03 16.6,15.76 24.86,37.95 24.86,66.57 0,27.45 -7.42,49.92 -22.32,67.36 -14.89,17.36 -33.37,30.96 -55.56,40.79 -22.19,9.81 -46,16.27 -71.57,19.39 -25.52,3.05 -48.93,4.6 -70.28,4.6 -21.35,0 -44.76,-1.55 -70.28,-4.6 -25.57,-3.13 -49.38,-9.58 -71.57,-19.39 -22.19,-9.84 -40.67,-23.43 -55.56,-40.79 -14.84,-17.44 -22.32,-39.9 -22.32,-67.36 0,-13.47 2.14,-25.69 6.31,-36.63 4.24,-10.93 9.96,-20.77 17.31,-29.48 7.29,-8.72 15.68,-16.39 25.26,-23.15 9.48,-6.71 19.65,-12.63 30.25,-17.72 -14.59,-7.27 -28.04,-18.07 -40.41,-32.41 -12.3,-14.31 -18.48,-32.66 -18.48,-55.1 0,-26.36 7.3,-47.55 21.86,-63.57 14.59,-16.01 32.41,-28.49 53.5,-37.49 20.99,-8.97 42.93,-14.94 65.65,-18.07 22.7,-3.07 42.22,-4.63 58.48,-4.63z"/>
  <path class="fil1" d="M19912.13 5298.65c11.77,-14.64 25.06,-31.03 39.96,-49.26 14.9,-18.27 30.07,-37.08 45.47,-56.42 15.43,-19.39 30.6,-38.18 45.42,-56.4 14.9,-18.23 28.11,-34.69 39.63,-49.26 11.46,-14.59 20.77,-26.48 27.73,-35.79 7.01,-9.25 10.55,-14.44 10.55,-15.55 0,-2.8 -1.37,-4.5 -4.24,-5.08 -2.8,-0.51 -6.43,-1.09 -10.93,-1.68l0 -10.09 200.41 0 0 10.09c-5.67,0.58 -10.01,1.17 -13.09,1.68 -3.05,0.58 -4.6,2.29 -4.6,5.08l0 263.47 53.02 0c3.38,0 6.71,-1.12 10.09,-3.33 3.38,-2.29 5.06,-7.29 5.06,-15.17l10.09 0 0 122.08 -10.09 0c0,-7.88 -1.68,-13.09 -5.06,-15.61 -3.38,-2.49 -6.71,-3.79 -10.09,-3.79l-53.02 0 0 53.05c0,6.18 2.06,10.14 6.3,11.77 4.22,1.68 8.52,2.87 13.01,3.38l0 10.14 -149.86 0 0 -10.14c3.97,-0.51 7.88,-1.7 11.84,-3.38 3.92,-1.63 5.87,-5.59 5.87,-11.77l0 -53.05 -238.23 0c-3.38,0 -6.76,1.3 -10.14,3.79 -3.33,2.52 -5.01,7.73 -5.01,15.61l-10.09 0 0 -104.36zm263.47 -195.33l-1.7 0 -159.95 196.12 161.65 0 0 -196.12z"/>
  <path class="fil1" d="M21145.16 8021.26l10.09 0c0,2.8 0.38,6.89 1.24,12.22 0.84,5.34 3.51,8.01 7.98,8.01 1.12,0 4.24,-0.97 9.25,-3 5.08,-1.96 10.67,-4.02 16.85,-6.31 6.18,-2.21 12.1,-4.5 17.69,-6.71 5.59,-2.26 9.25,-3.63 10.93,-4.22l0 -26.94c0,-6.18 -1.93,-10.09 -5.85,-11.77 -3.96,-1.7 -7.62,-2.8 -11.01,-3.38l0 -10.09 165.01 0 0 10.09c-6.18,0.59 -11.31,1.68 -15.53,3.38 -4.24,1.68 -6.33,5.59 -6.33,11.77l0 392.29c0,6.18 2.09,10.17 6.33,11.79 4.22,1.68 8.85,2.85 13.85,3.38l0 10.09 -167.5 0 0 -10.09c5.62,-0.53 10.5,-1.7 14.72,-3.38 4.22,-1.63 6.3,-5.62 6.3,-11.79l0 -267.69c-13.98,3.41 -25.36,6.2 -34.08,8.41 -8.72,2.26 -15.17,4.68 -19.39,7.14 -4.17,2.54 -6.96,5.46 -8.39,8.84 -1.37,3.41 -2.08,7.88 -2.08,13.47l-10.09 0 0 -135.52z"/>
  <path class="fil1" d="M21612.35 8235.07c0,2.87 -0.13,5.21 -0.38,7.17 -0.33,2.01 -0.46,4.35 -0.46,7.14 0,8.46 5.18,16.85 15.6,25.32 10.35,8.39 23.82,15.94 40.42,22.72 16.52,6.68 35.07,12.35 55.56,16.85 20.43,4.47 40.79,6.69 61.03,6.69 33.65,0 57.21,-4.63 70.66,-13.85 13.47,-9.3 20.26,-21.22 20.26,-35.79 0,-14.06 -5.8,-25.82 -17.31,-35.41 -11.46,-9.48 -29.03,-14.31 -52.59,-14.31l-52.18 0c-5.59,0 -9.83,1.42 -12.63,4.24 -2.8,2.8 -4.22,8.97 -4.22,18.53l-10.09 0 0 -127.14 10.09 0c0,7.29 1.42,12.23 4.22,14.77 2.8,2.47 6.46,3.76 10.93,3.76l57.26 0c12.3,0 23.31,-2.92 32.81,-8.85 9.56,-5.92 14.31,-15.28 14.31,-28.16 0,-14.64 -5.08,-25.57 -15.17,-32.86 -10.09,-7.29 -29.46,-11.51 -58.03,-12.63 -20.82,0 -40.41,2.54 -58.97,7.55 -18.53,5.08 -34.54,10.8 -47.94,17.31 -13.55,6.46 -24.14,13.01 -32.02,19.8 -7.88,6.69 -11.77,11.77 -11.77,15.07 0,2.29 0.13,4.24 0.38,5.92 0.25,1.7 0.71,3.66 1.3,5.92l-6.76 6.71 -71.57 -113.66 9.3 -4.17c3.92,3.91 8.13,5.85 12.63,5.85 4.47,0 12.02,-2.92 22.7,-8.77 10.68,-5.92 24.53,-12.25 41.66,-18.94 17.16,-6.76 37.46,-13.09 61.08,-19.01 23.56,-5.85 50.5,-8.77 80.83,-8.77 23.56,0 46.72,2.21 69.44,6.68 22.7,4.5 43.06,11.79 61.03,21.86 17.95,10.17 32.41,23.18 43.34,39.19 10.93,15.99 16.44,35.51 16.44,58.49 0,11.26 -1.68,21.22 -5.06,29.94 -3.38,8.64 -7.62,16.27 -12.63,22.7 -5.08,6.46 -10.55,12.05 -16.4,16.85 -5.92,4.75 -11.39,8.79 -16.47,12.17l0 4.22c23.56,10.68 41.71,24.27 54.34,40.79 12.63,16.6 18.94,37.49 18.94,62.73 0,22.44 -5.92,42.24 -17.69,59.35 -11.79,17.11 -27.07,31.42 -45.88,42.96 -18.81,11.51 -40.03,19.77 -63.57,24.83 -23.56,5.03 -47.12,7.55 -70.74,7.55 -31.95,0 -61.03,-2.08 -87.13,-6.3 -26.08,-4.17 -49.51,-9.38 -70.28,-15.55 -19.65,-6.18 -35.46,-11.77 -47.55,-16.85 -12.05,-5.06 -19.52,-7.55 -22.32,-7.55 -2.79,0 -5.34,0.53 -7.55,1.7 -2.29,1.09 -4.83,3.63 -7.63,7.55l-10.06 -2.54 57.24 -143.93 9.25 4.17z"/>
  <path class="fil1" d="M22191.11 11468c0,-19.65 -8.97,-34.95 -26.94,-45.88 -17.95,-10.93 -39.88,-16.4 -65.65,-16.4 -25.82,0 -47.76,5.46 -65.7,16.4 -17.97,10.93 -26.94,26.23 -26.94,45.88 0,19.65 8.97,34.69 26.94,45.04 17.95,10.4 39.88,15.55 65.7,15.55 25.77,0 47.71,-5.16 65.65,-15.55 17.97,-10.35 26.94,-25.39 26.94,-45.04zm37.03 -170.85c0.59,-1.17 0.84,-2.54 0.84,-4.24l0 -4.22c0,-7.8 -8.97,-16.14 -26.94,-24.81 -17.95,-8.72 -44.89,-13.06 -80.8,-13.06 -19.06,0 -37.03,2.41 -53.88,7.17 -16.85,4.73 -31.44,11.9 -43.79,21.45 -12.35,9.58 -22.19,21.86 -29.48,37.03 -7.27,15.15 -10.93,32.86 -10.93,53.02 21.94,-18.48 43.67,-31.41 65.27,-38.71 21.6,-7.3 46.72,-10.93 75.34,-10.93 21.88,0 43.61,3.2 65.22,9.71 21.66,6.43 40.97,15.94 58.1,28.62 17.1,12.63 30.91,28.31 41.25,47.1 10.4,18.81 15.55,40.87 15.55,66.11 0,26.94 -6.13,49.92 -18.48,69.03 -12.38,19.09 -28.26,34.49 -47.58,46.29 -19.39,11.77 -40.87,20.1 -64.41,24.86 -23.56,4.73 -46.59,7.14 -69.03,7.14 -35.33,0 -67.94,-3.89 -97.68,-11.77 -29.74,-7.88 -55.1,-20.77 -76.12,-38.71 -21.1,-17.97 -37.49,-40.87 -49.26,-68.65 -11.84,-27.78 -17.69,-61.03 -17.69,-99.76 0,-34.8 6.56,-66.49 19.77,-95.11 13.22,-28.65 31.04,-53.05 53.48,-73.28 22.44,-20.18 48.55,-35.71 78.28,-46.72 29.74,-10.93 61.41,-16.4 95.14,-16.4 26.33,0 48.93,1.22 67.73,3.76 18.78,2.54 34.54,5.46 47.17,8.85 12.61,3.41 22.57,6.33 29.87,8.87 7.27,2.52 12.86,3.76 16.85,3.76 3.38,0 6.05,-1.24 7.98,-3.76 1.96,-2.54 4.37,-4.88 7.17,-7.17l9.25 3.38 -60.64 116.15 -7.55 -5.01z"/>
  <path class="fil1" d="M21124.92 14464.36l10.09 0c0,2.8 0.46,6.91 1.3,12.22 0.84,5.34 3.51,8.01 8.01,8.01 1.09,0 4.17,-0.97 9.22,-2.92 5.08,-2.01 10.68,-4.09 16.85,-6.3 6.2,-2.29 12.05,-4.5 17.64,-6.76 5.67,-2.21 9.3,-3.66 11.01,-4.24l0 -26.94c0,-6.18 -2.03,-10.07 -5.92,-11.77 -3.91,-1.7 -7.55,-2.8 -10.93,-3.38l0 -10.09 165.01 0 0 10.09c-6.18,0.58 -11.39,1.68 -15.63,3.38 -4.14,1.7 -6.3,5.59 -6.3,11.77l0 392.31c0,6.18 2.16,10.14 6.3,11.84 4.24,1.63 8.87,2.8 13.93,3.31l0 10.14 -167.55 0 0 -10.14c5.59,-0.51 10.55,-1.68 14.77,-3.31 4.17,-1.7 6.33,-5.67 6.33,-11.84l0 -267.69c-14.06,3.38 -25.44,6.18 -34.11,8.46 -8.72,2.21 -15.15,4.6 -19.39,7.14 -4.22,2.47 -7.02,5.46 -8.39,8.79 -1.42,3.38 -2.13,7.88 -2.13,13.47l-10.09 0 0 -135.55z"/>
  <path class="fil1" d="M21767.26 14407.17c31.44,0 60.85,5.72 88.38,17.23 27.53,11.51 51.77,27.35 72.79,47.58 21.1,20.15 37.62,44.05 49.72,71.5 12.05,27.53 18.1,57.59 18.1,90.13 0,32.53 -6.05,62.58 -18.1,90.05 -12.1,27.53 -28.62,51.34 -49.72,71.57 -21.02,20.23 -45.27,35.66 -72.79,46.33 -27.53,10.6 -56.93,15.94 -88.38,15.94 -30.91,0 -60.19,-5.34 -87.97,-15.94 -27.78,-10.68 -52.18,-26.1 -73.25,-46.33 -21.02,-20.23 -37.62,-44.05 -49.67,-71.57 -12.1,-27.48 -18.07,-57.52 -18.07,-90.05 0,-32.54 5.97,-62.6 18.07,-90.13 12.05,-27.45 28.65,-51.34 49.67,-71.5 21.07,-20.23 45.47,-36.07 73.25,-47.58 27.78,-11.51 57.06,-17.23 87.97,-17.23zm0 99.3c-18.53,0 -34.41,3.63 -47.55,10.98 -13.22,7.3 -24.02,16.93 -32.41,29.03 -8.46,12.05 -14.64,25.65 -18.55,40.79 -3.89,15.18 -5.92,30.58 -5.92,46.34 0,15.68 2.03,31.16 5.92,46.26 3.91,15.15 10.09,28.75 18.55,40.87 8.39,12.02 19.19,21.73 32.41,29 13.14,7.37 29.03,10.93 47.55,10.93 18.48,0 34.37,-3.56 47.58,-10.93 13.14,-7.27 23.94,-16.98 32.38,-29 8.41,-12.12 14.59,-25.72 18.5,-40.87 3.96,-15.1 5.9,-30.58 5.9,-46.26 0,-15.76 -1.93,-31.16 -5.9,-46.34 -3.92,-15.15 -10.09,-28.75 -18.5,-40.79 -8.44,-12.1 -19.24,-21.73 -32.38,-29.03 -13.22,-7.35 -29.1,-10.98 -47.58,-10.98z"/>
  <path class="fil1" d="M19708.79 17478.22l10.09 0c0,2.85 0.46,6.89 1.3,12.23 0.84,5.34 3.51,8 8.01,8 1.09,0 4.17,-0.97 9.23,-2.92 5.08,-2.03 10.67,-4.09 16.88,-6.33 6.18,-2.26 12.02,-4.47 17.62,-6.76 5.67,-2.21 9.3,-3.63 11.01,-4.22l0 -26.94c0,-6.13 -2.01,-10.09 -5.92,-11.77 -3.92,-1.7 -7.55,-2.8 -10.93,-3.38l0 -10.09 165.01 0 0 10.09c-6.18,0.59 -11.39,1.68 -15.61,3.38 -4.17,1.68 -6.33,5.64 -6.33,11.77l0 392.29c0,6.18 2.16,10.17 6.33,11.84 4.22,1.63 8.85,2.8 13.9,3.33l0 10.14 -167.55 0 0 -10.14c5.62,-0.53 10.55,-1.7 14.79,-3.33 4.14,-1.68 6.3,-5.67 6.3,-11.84l0 -267.69c-14.06,3.41 -25.44,6.2 -34.11,8.46 -8.72,2.21 -15.15,4.63 -19.37,7.17 -4.24,2.46 -7.04,5.46 -8.41,8.84 -1.42,3.33 -2.13,7.8 -2.13,13.4l-10.09 0 0 -135.52z"/>
  <path class="fil1" d="M20213.06 17708.04c-1.68,3.96 -2.54,8.18 -2.54,12.68 0,3.92 2.92,8.97 8.84,15.1 5.92,6.18 14.72,12.23 26.56,18.15 11.77,5.87 26.36,10.8 43.72,14.72 17.44,3.89 37.62,5.92 60.64,5.92 28.65,0 51.6,-5.34 69.03,-16.01 17.38,-10.68 26.1,-25.82 26.1,-45.5 0,-16.27 -8,-30.12 -24.02,-41.63 -16.01,-11.51 -39.42,-17.23 -70.28,-17.23 -24.12,0 -40.84,2.34 -50.09,7.14 -9.23,4.75 -13.93,9.63 -13.93,14.72 0,1.68 0.59,3.25 1.7,4.63 1.17,1.42 2.54,3.51 4.22,6.31l-5.06 9.3 -146.48 -88.42 5.92 -8.46c1.12,1.17 2.8,1.75 5.01,1.75l5.08 0c4.47,0 6.76,-2.85 6.76,-8.46l0 -141.45c0,-6.13 -2.01,-10.09 -5.92,-11.77 -3.96,-1.7 -8.13,-2.8 -12.63,-3.38l0 -10.09 372.08 0c3.38,0 6.76,-1.25 10.14,-3.79 3.3,-2.54 5.01,-8.26 5.01,-17.23l10.14 0 0 131.3 -10.14 0c0,-8.39 -1.7,-14.06 -5.01,-16.85 -3.38,-2.79 -6.76,-4.17 -10.14,-4.17l-244.16 0 0 73.2c19.67,-6.18 38.79,-10.47 57.27,-13.01 18.55,-2.54 37.62,-3.76 57.26,-3.76 23.56,0 46.33,2.59 68.19,7.93 21.86,5.34 41.25,13.93 58.1,25.7 16.77,11.77 30.25,26.94 40.41,45.5 10.09,18.48 15.15,41.25 15.15,68.17 0,24.14 -5.64,45.75 -16.85,64.81 -11.26,19.06 -26.94,35.2 -47.18,48.42 -20.16,13.14 -44.3,23.03 -72.36,29.46 -28.09,6.46 -58.94,9.63 -92.64,9.63 -23.56,0 -44.89,-1.22 -63.95,-3.76 -19.09,-2.54 -36.19,-5.87 -51.34,-10.09 -15.17,-4.22 -28.06,-8.59 -38.71,-13.06 -10.68,-4.5 -19.39,-8.13 -26.1,-10.95 -3.97,-1.68 -7.63,-3.18 -10.93,-4.6 -3.38,-1.45 -5.92,-2.09 -7.63,-2.09 -2.8,0 -7.02,1.96 -12.61,5.85l-10.09 -5.01 84.2 -127.14 9.23 7.55z"/>
  <path class="fil1" d="M17953.02 20129.41c6.76,0 11.64,-1.24 14.77,-3.79 3.05,-2.52 5.13,-7.7 6.3,-15.58l10.09 0 0 135.55 -10.09 0c-1.17,-7.85 -3.51,-12.63 -7.14,-14.31 -3.63,-1.68 -9.71,-2.52 -18.1,-2.52l-373.81 0c-5.59,0 -9.84,0.84 -12.63,2.52 -2.8,1.68 -4.22,6.46 -4.22,14.31l-10.09 0c-1.09,-24.71 2.29,-47.43 10.09,-68.19 7.88,-20.77 18.81,-39.85 32.87,-57.24 14.05,-17.41 30.45,-33.4 49.26,-47.99 18.81,-14.59 38.46,-28.06 58.86,-40.41 20.51,-12.35 41.13,-24.12 61.89,-35.35 20.82,-11.21 40.41,-22.44 58.94,-33.68 8.41,-5.06 14.59,-10.37 18.55,-15.99 3.92,-5.62 5.85,-13.19 5.85,-22.72 0,-10.68 -4.6,-20.64 -13.85,-29.89 -9.3,-9.25 -24.6,-13.9 -45.88,-13.9 -19.65,0 -38.05,3.1 -55.18,9.28 -17.1,6.18 -32.13,13.47 -45.01,21.88 -12.88,8.41 -23.03,16.98 -30.32,25.67 -7.29,8.69 -10.93,15.86 -10.93,21.48 0,3.35 1.09,7.57 3.38,12.61l-10.09 7.6 -89.27 -125.46 9.23 -6.74c1.7,1.7 3.84,3.23 6.33,4.65 2.54,1.4 5.52,2.09 8.85,2.09 4.5,0 11.97,-3.79 22.32,-11.36 10.42,-7.57 24.27,-15.84 41.71,-24.83 17.94,-9.53 38.96,-17.94 63.11,-25.24 24.15,-7.29 52.18,-10.95 84.21,-10.95 24.15,0 47.1,3.66 69.03,10.95 21.86,7.3 41.25,17.26 58.03,29.89 16.85,12.61 30.32,27.75 40.41,45.44 10.17,17.69 15.17,37.19 15.17,58.51 0,20.77 -4.37,38.71 -13.01,53.88 -8.72,15.15 -20.1,28.47 -34.11,39.98 -14.06,11.51 -29.92,21.76 -47.56,30.73 -17.69,8.97 -35.53,17.54 -53.48,25.67 -17.97,8.13 -35.08,16.42 -51.34,24.83 -16.27,8.41 -29.99,17.97 -41.25,28.62l228.12 0z"/>
  <path class="fil1" d="M14355.32 21327.69l10.07 0c0,2.8 0.46,6.86 1.32,12.2 0.84,5.34 3.51,8.01 7.93,8.01 1.17,0 4.22,-0.99 9.3,-2.95 5.01,-1.98 10.67,-4.07 16.85,-6.33 6.18,-2.24 12.05,-4.47 17.64,-6.74 5.64,-2.24 9.3,-3.63 10.98,-4.2l0 -26.94c0,-6.18 -2.01,-10.11 -5.92,-11.79 -3.89,-1.68 -7.55,-2.79 -10.93,-3.35l0 -10.11 165.01 0 0 10.11c-6.18,0.56 -11.39,1.68 -15.61,3.35 -4.17,1.68 -6.3,5.62 -6.3,11.79l0 392.29c0,6.18 2.13,10.11 6.3,11.79 4.22,1.68 8.85,2.8 13.93,3.36l0 10.11 -167.55 0 0 -10.11c5.59,-0.56 10.55,-1.68 14.77,-3.36 4.17,-1.68 6.3,-5.62 6.3,-11.79l0 -267.69c-14.05,3.35 -25.44,6.18 -34.16,8.41 -8.64,2.24 -15.1,4.63 -19.32,7.14 -4.22,2.54 -7.02,5.49 -8.39,8.84 -1.45,3.38 -2.16,7.85 -2.16,13.47l-10.07 0 0 -135.52z"/>
  <path class="fil1" d="M14811.56 21374.82c-3.3,0 -6.68,1.27 -10.09,3.79 -3.38,2.54 -5.01,7.73 -5.01,15.58l-10.14 0 0 -139.74 10.14 0c0,9 1.63,14.74 5.01,17.26 3.41,2.52 6.79,3.79 10.09,3.79l378.05 0c3.31,0 6.71,-1.27 10.09,-3.79 3.38,-2.52 5.01,-7.7 5.01,-15.55l10.14 0 0 107.74 -162.46 295.47c-3.38,6.18 -7.04,12.63 -11.01,19.37 -3.89,6.74 -5.85,11.51 -5.85,14.31 0,6.18 2.08,10.11 6.3,11.79 4.22,1.68 8.85,2.8 13.85,3.36l0 10.11 -186.03 0 0 -10.11c6.2,-0.56 11.39,-2.8 15.55,-6.74 4.24,-3.92 8.01,-8.69 11.39,-14.31l186.03 -312.32 -271.07 0z"/>
  <path class="fil1" d="M11350.1 22005.36c0,2.82 -0.13,5.18 -0.46,7.17 -0.26,1.96 -0.38,4.35 -0.38,7.14 0,8.41 5.21,16.85 15.55,25.26 10.42,8.41 23.87,15.99 40.41,22.72 16.57,6.73 35.08,12.35 55.56,16.85 20.49,4.47 40.87,6.74 61.03,6.74 33.7,0 57.26,-4.65 70.74,-13.9 13.47,-9.25 20.18,-21.17 20.18,-35.79 0,-14.03 -5.74,-25.8 -17.26,-35.35 -11.51,-9.53 -29.03,-14.31 -52.56,-14.31l-52.26 0c-5.59,0 -9.84,1.42 -12.63,4.22 -2.8,2.8 -4.17,8.97 -4.17,18.5l-10.14 0 0 -127.11 10.14 0c0,7.29 1.37,12.2 4.17,14.74 2.8,2.52 6.51,3.78 11.01,3.78l57.19 0c12.38,0 23.31,-2.95 32.86,-8.84 9.56,-5.9 14.31,-15.28 14.31,-28.19 0,-14.62 -5.06,-25.54 -15.15,-32.84 -10.09,-7.29 -29.48,-11.51 -58.1,-12.63 -20.77,0 -40.41,2.52 -58.89,7.57 -18.55,5.06 -34.57,10.8 -48.01,17.26 -13.47,6.46 -24.15,13.04 -32.03,19.77 -7.8,6.73 -11.77,11.79 -11.77,15.17 0,2.24 0.18,4.19 0.46,5.9 0.25,1.68 0.71,3.63 1.22,5.87l-6.68 6.74 -71.57 -113.64 9.22 -4.22c3.97,3.94 8.14,5.9 12.63,5.9 4.47,0 12.1,-2.95 22.77,-8.82 10.68,-5.9 24.53,-12.23 41.63,-18.96 17.1,-6.73 37.49,-13.04 61.03,-18.93 23.56,-5.9 50.5,-8.85 80.83,-8.85 23.56,0 46.72,2.26 69.41,6.74 22.77,4.5 43.16,11.79 61.1,21.88 17.97,10.12 32.41,23.16 43.33,39.14 10.93,16.01 16.39,35.51 16.39,58.51 0,11.23 -1.68,21.2 -5.01,29.89 -3.38,8.69 -7.6,16.27 -12.68,22.72 -5.01,6.46 -10.47,12.07 -16.39,16.85 -5.85,4.78 -11.34,8.85 -16.39,12.2l0 4.22c23.56,10.65 41.63,24.27 54.26,40.82 12.61,16.55 18.94,37.46 18.94,62.73 0,22.44 -5.87,42.22 -17.64,59.35 -11.77,17.11 -27.07,31.42 -45.88,42.93 -18.81,11.49 -40,19.77 -63.57,24.83 -23.61,5.06 -47.17,7.57 -70.74,7.57 -32,0 -61.03,-2.11 -87.1,-6.3 -26.1,-4.22 -49.54,-9.4 -70.28,-15.58 -19.65,-6.18 -35.53,-11.79 -47.58,-16.83 -12.1,-5.06 -19.52,-7.6 -22.32,-7.6 -2.8,0 -5.34,0.56 -7.6,1.7 -2.21,1.12 -4.75,3.63 -7.55,7.57l-10.09 -2.54 57.19 -143.94 9.3 4.2z"/>
  <path class="fil1" d="M7758.51 21341.16l10.09 0c0,2.8 0.41,6.86 1.24,12.2 0.84,5.34 3.51,8.01 8.01,8.01 1.17,0 4.22,-0.99 9.3,-2.95 5.01,-1.98 10.68,-4.07 16.78,-6.33 6.2,-2.24 12.12,-4.47 17.71,-6.74 5.59,-2.24 9.23,-3.63 10.93,-4.19l0 -26.94c0,-6.18 -1.96,-10.12 -5.87,-11.79 -3.96,-1.68 -7.6,-2.8 -10.93,-3.35l0 -10.12 164.96 0 0 10.12c-6.13,0.56 -11.34,1.68 -15.55,3.35 -4.22,1.68 -6.31,5.62 -6.31,11.79l0 392.28c0,6.18 2.09,10.12 6.31,11.79 4.22,1.68 8.84,2.8 13.93,3.35l0 10.12 -167.55 0 0 -10.12c5.59,-0.56 10.47,-1.68 14.69,-3.35 4.24,-1.68 6.33,-5.62 6.33,-11.79l0 -267.69c-14,3.36 -25.39,6.18 -34.11,8.41 -8.64,2.24 -15.15,4.63 -19.31,7.14 -4.22,2.54 -7.02,5.49 -8.46,8.85 -1.37,3.38 -2.08,7.85 -2.08,13.47l-10.09 0 0 -135.52z"/>
  <path class="fil1" d="M8387.32 21369.79c-7.8,0 -17.1,0.96 -27.78,2.95 -10.68,1.96 -20.74,5.18 -30.25,9.66 -9.58,4.5 -17.72,10.83 -24.48,18.96 -6.68,8.13 -10.09,18.38 -10.09,30.73 0,12.33 3.41,22.57 10.09,30.73 6.76,8.13 14.9,14.44 24.48,18.94 9.5,4.47 19.57,7.7 30.25,9.68 10.68,1.96 19.98,2.95 27.78,2.95 7.88,0 17.13,-0.99 27.78,-2.95 10.68,-1.98 20.77,-5.21 30.32,-9.68 9.58,-4.5 17.72,-10.8 24.4,-18.94 6.79,-8.16 10.17,-18.4 10.17,-30.73 0,-12.35 -3.38,-22.6 -10.17,-30.73 -6.68,-8.13 -14.82,-14.46 -24.4,-18.96 -9.56,-4.47 -19.65,-7.7 -30.32,-9.66 -10.65,-1.98 -19.9,-2.95 -27.78,-2.95zm-132.98 234.88l0 7.57c0,7.29 3.13,13.6 9.3,18.94 6.1,5.34 14.23,9.68 24.4,13.04 10.09,3.38 21.73,5.89 34.92,7.57 13.17,1.7 26.49,2.54 39.96,2.54 17.97,0 35.2,-2.39 51.8,-7.17 16.52,-4.78 31.44,-12.07 44.63,-21.88 13.14,-9.81 24.07,-22.04 32.79,-36.63 8.74,-14.59 13.93,-31.98 15.63,-52.18 -29.23,14.59 -55.89,25.52 -80.04,32.84 -24.07,7.29 -50.23,10.93 -78.28,10.93 -21.86,0 -42.6,-3.35 -62.27,-10.09 -19.65,-6.74 -37.01,-16.57 -52.18,-29.48 -15.15,-12.89 -27.25,-28.47 -36.24,-46.72 -8.97,-18.22 -13.44,-38.86 -13.44,-61.86 0,-26.94 6.3,-49.82 18.91,-68.63 12.63,-18.78 28.65,-34.08 48.04,-45.88 19.32,-11.77 41,-20.33 64.81,-25.67 23.87,-5.34 46.97,-8 69.41,-8 35.41,0 67.36,4.5 95.97,13.47 28.62,9 53.22,22.6 73.66,40.85 20.49,18.23 36.37,40.95 47.55,68.19 11.26,27.2 16.85,59.35 16.85,96.38 0,37.03 -7.02,70.15 -21.02,99.33 -14.03,29.18 -32.84,53.61 -56.4,73.25 -23.56,19.62 -50.96,34.36 -82.12,44.2 -31.08,9.81 -63.82,14.72 -98.06,14.72 -21.86,0 -41.96,-1.12 -60.19,-3.35 -18.2,-2.26 -34.09,-5.19 -47.56,-8.85 -13.47,-3.66 -24.14,-6.89 -32.02,-9.68 -7.8,-2.8 -12.61,-4.22 -14.31,-4.22 -6.68,0 -13.14,3.1 -19.32,9.28l-10.09 -4.22 66.49 -112.8 8.41 4.22z"/>
  <path class="fil1" d="M4939.03 19885.28c-3.41,0 -6.79,1.27 -10.09,3.79 -3.38,2.54 -5.08,7.73 -5.08,15.58l-10.09 0 0 -139.74 10.09 0c0,8.97 1.7,14.74 5.08,17.26 3.31,2.52 6.68,3.79 10.09,3.79l377.98 0c3.38,0 6.76,-1.27 10.07,-3.79 3.41,-2.52 5.08,-7.73 5.08,-15.58l10.09 0 0 107.77 -162.46 295.47c-3.41,6.18 -7.04,12.63 -10.95,19.37 -3.89,6.74 -5.9,11.51 -5.9,14.31 0,6.18 2.13,10.09 6.3,11.77 4.22,1.7 8.85,2.82 13.93,3.38l0 10.12 -186.03 0 0 -10.12c6.1,-0.56 11.31,-2.79 15.53,-6.73 4.24,-3.92 8,-8.69 11.39,-14.31l186.05 -312.32 -271.07 0z"/>
  <path class="fil1" d="M2468.53 17478.22l10.11 0c0,2.85 0.41,6.89 1.25,12.23 0.84,5.34 3.51,8 8,8 1.12,0 4.2,-0.97 9.25,-2.92 5.06,-2.03 10.68,-4.09 16.85,-6.33 6.15,-2.26 12.05,-4.47 17.66,-6.76 5.62,-2.21 9.25,-3.63 10.95,-4.22l0 -26.94c0,-6.13 -1.98,-10.09 -5.9,-11.77 -3.94,-1.7 -7.57,-2.8 -10.95,-3.38l0 -10.09 165.01 0 0 10.09c-6.18,0.59 -11.36,1.68 -15.58,3.38 -4.19,1.68 -6.3,5.64 -6.3,11.77l0 392.29c0,6.18 2.11,10.17 6.3,11.84 4.22,1.63 8.85,2.8 13.9,3.33l0 10.14 -167.52 0 0 -10.14c5.62,-0.53 10.52,-1.7 14.72,-3.33 4.22,-1.68 6.33,-5.67 6.33,-11.84l0 -267.69c-14.03,3.41 -25.39,6.2 -34.11,8.46 -8.69,2.21 -15.15,4.63 -19.37,7.17 -4.19,2.46 -6.99,5.46 -8.41,8.84 -1.4,3.33 -2.09,7.8 -2.09,13.4l-10.11 0 0 -135.52z"/>
  <path class="fil1" d="M3216.93 17720.72c0,-19.65 -9,-34.95 -26.94,-45.93 -17.97,-10.93 -39.85,-16.42 -65.68,-16.42 -25.8,0 -47.71,5.49 -65.65,16.42 -17.97,10.98 -26.94,26.28 -26.94,45.93 0,19.65 8.97,34.62 26.94,45.01 17.94,10.37 39.85,15.55 65.65,15.55 25.82,0 47.71,-5.18 65.68,-15.55 17.95,-10.4 26.94,-25.37 26.94,-45.01zm37.03 -170.93c0.56,-1.12 0.84,-2.54 0.84,-4.24l0 -4.14c0,-7.88 -8.97,-16.14 -26.94,-24.86 -17.95,-8.72 -44.89,-13.01 -80.8,-13.01 -19.09,0 -37.06,2.34 -53.88,7.14 -16.85,4.75 -31.44,11.92 -43.77,21.43 -12.35,9.56 -22.19,21.91 -29.48,37.08 -7.3,15.15 -10.93,32.79 -10.93,53.02 21.88,-18.53 43.64,-31.42 65.25,-38.71 21.6,-7.29 46.72,-11.01 75.34,-11.01 21.88,0 43.64,3.25 65.25,9.71 21.6,6.43 40.97,15.99 58.08,28.62 17.13,12.63 30.88,28.37 41.25,47.18 10.4,18.81 15.58,40.79 15.58,66.06 0,26.92 -6.18,49.97 -18.53,69.03 -12.35,19.06 -28.19,34.54 -47.55,46.31 -19.37,11.79 -40.82,20.05 -64.41,24.81 -23.56,4.8 -46.59,7.14 -69.03,7.14 -35.35,0 -67.89,-3.89 -97.65,-11.77 -29.74,-7.8 -55.13,-20.77 -76.17,-38.71 -21.04,-17.97 -37.46,-40.79 -49.26,-68.57 -11.79,-27.81 -17.66,-61.05 -17.66,-99.76 0,-34.82 6.58,-66.49 19.77,-95.14 13.19,-28.62 31.01,-53.02 53.45,-73.25 22.44,-20.23 48.55,-35.79 78.28,-46.72 29.76,-10.93 61.46,-16.39 95.14,-16.39 26.38,0 48.98,1.22 67.76,3.76 18.81,2.54 34.52,5.47 47.15,8.85 12.63,3.38 22.6,6.33 29.89,8.85 7.3,2.49 12.91,3.79 16.83,3.79 3.38,0 6.05,-1.3 8.01,-3.79 1.96,-2.52 4.35,-4.93 7.17,-7.14l9.25 3.3 -60.62 116.23 -7.57 -5.08z"/>
  <path class="fil1" d="M1257.18 14589.69c7.85,0 16.27,-0.71 25.27,-2.16 8.97,-1.35 17.38,-3.76 25.26,-7.14 7.85,-3.38 14.44,-8.14 19.77,-14.34 5.34,-6.18 7.98,-13.73 7.98,-22.7 0,-9.56 -2.64,-17.23 -7.98,-23.15 -5.34,-5.92 -11.92,-10.55 -19.77,-13.88 -7.88,-3.38 -16.29,-5.77 -25.26,-7.14 -9,-1.45 -17.41,-2.16 -25.27,-2.16 -7.29,0 -15.55,0.71 -24.83,2.16 -9.25,1.37 -17.82,3.76 -25.67,7.14 -7.85,3.33 -14.46,7.95 -19.77,13.88 -5.34,5.92 -8,13.6 -8,23.15 0,8.97 2.67,16.52 8,22.7 5.31,6.2 11.92,10.96 19.77,14.34 7.85,3.38 16.42,5.79 25.67,7.14 9.28,1.45 17.54,2.16 24.83,2.16zm0 85.81c-8.41,0 -18.22,0.74 -29.46,2.09 -11.23,1.45 -22.04,4.12 -32.41,8 -10.4,3.97 -19.09,9.58 -26.1,16.85 -7.01,7.29 -10.52,16.6 -10.52,27.78 0,11.26 3.51,20.51 10.52,27.78 7.02,7.29 15.71,12.89 26.1,16.88 10.37,3.89 21.17,6.56 32.41,7.98 11.23,1.37 21.05,2.09 29.46,2.09 8.41,0 18.25,-0.71 29.46,-2.09 11.23,-1.42 22.04,-4.09 32.43,-7.98 10.37,-3.99 19.06,-9.58 26.08,-16.88 7.01,-7.27 10.52,-16.52 10.52,-27.78 0,-11.18 -3.51,-20.49 -10.52,-27.78 -7.02,-7.27 -15.71,-12.89 -26.08,-16.85 -10.4,-3.89 -21.2,-6.56 -32.43,-8 -11.21,-1.35 -21.05,-2.09 -29.46,-2.09zm0 -260.98c16.27,0 35.79,1.58 58.51,4.7 22.72,3.05 44.63,9.1 65.68,18.07 21.04,9 38.86,21.48 53.45,37.41 14.59,16.01 21.88,37.24 21.88,63.57 0,22.47 -6.46,41 -19.37,55.59 -12.91,14.56 -28.9,26.41 -47.99,35.38 25.26,9 46.16,21.27 62.73,37.03 16.55,15.68 24.83,37.87 24.83,66.49 0,27.53 -7.45,49.97 -22.32,67.35 -14.87,17.36 -33.4,30.96 -55.56,40.79 -22.17,9.81 -46,16.32 -71.55,19.39 -25.54,3.05 -48.98,4.63 -70.3,4.63 -21.32,0 -44.76,-1.58 -70.28,-4.63 -25.54,-3.08 -49.38,-9.58 -71.57,-19.39 -22.16,-9.84 -40.69,-23.43 -55.56,-40.79 -14.87,-17.38 -22.29,-39.83 -22.29,-67.35 0,-13.47 2.11,-25.7 6.3,-36.63 4.22,-10.93 9.96,-20.76 17.26,-29.48 7.29,-8.64 15.71,-16.4 25.26,-23.16 9.53,-6.71 19.62,-12.63 30.3,-17.64 -14.59,-7.29 -28.06,-18.1 -40.41,-32.41 -12.35,-14.31 -18.53,-32.71 -18.53,-55.18 0,-26.33 7.3,-47.55 21.91,-63.57 14.59,-15.94 32.41,-28.41 53.45,-37.41 21.04,-8.97 42.93,-15.02 65.65,-18.07 22.72,-3.13 42.24,-4.7 58.51,-4.7z"/>
  <path class="fil1" d="M432.61 11225.58l10.12 0c0,2.8 0.41,6.81 1.24,12.15 0.84,5.34 3.51,8.01 8.01,8.01 1.12,0 4.22,-0.97 9.25,-2.92 5.06,-1.96 10.67,-4.04 16.85,-6.3 6.15,-2.21 12.05,-4.5 17.66,-6.71 5.62,-2.29 9.28,-3.71 10.95,-4.22l0 -26.94c0,-6.18 -1.98,-10.09 -5.89,-11.79 -3.94,-1.68 -7.57,-2.8 -10.96,-3.38l0 -10.07 165.01 0 0 10.07c-6.18,0.59 -11.36,1.7 -15.58,3.38 -4.19,1.7 -6.3,5.62 -6.3,11.79l0 392.29c0,6.18 2.11,10.09 6.3,11.77 4.22,1.7 8.85,2.8 13.9,3.41l0 10.07 -167.52 0 0 -10.07c5.59,-0.61 10.52,-1.7 14.72,-3.41 4.22,-1.68 6.33,-5.59 6.33,-11.77l0 -267.69c-14.03,3.33 -25.42,6.18 -34.11,8.39 -8.69,2.29 -15.15,4.63 -19.34,7.17 -4.22,2.54 -7.01,5.46 -8.44,8.85 -1.4,3.38 -2.08,7.88 -2.08,13.47l-10.12 0 0 -135.52z"/>
  <path class="fil1" d="M946.97 11225.58l10.09 0c0,2.8 0.43,6.81 1.27,12.15 0.84,5.34 3.51,8.01 8.01,8.01 1.12,0 4.19,-0.97 9.25,-2.92 5.06,-1.96 10.68,-4.04 16.85,-6.3 6.18,-2.21 12.05,-4.5 17.66,-6.71 5.62,-2.29 9.25,-3.71 10.96,-4.22l0 -26.94c0,-6.18 -1.98,-10.09 -5.9,-11.79 -3.94,-1.68 -7.57,-2.8 -10.96,-3.38l0 -10.07 165.01 0 0 10.07c-6.18,0.59 -11.36,1.7 -15.58,3.38 -4.2,1.7 -6.31,5.62 -6.31,11.79l0 392.29c0,6.18 2.11,10.09 6.31,11.77 4.22,1.7 8.84,2.8 13.9,3.41l0 10.07 -167.52 0 0 -10.07c5.59,-0.61 10.52,-1.7 14.72,-3.41 4.22,-1.68 6.33,-5.59 6.33,-11.77l0 -267.69c-14.03,3.33 -25.39,6.18 -34.11,8.39 -8.69,2.29 -15.15,4.63 -19.34,7.17 -4.22,2.54 -7.04,5.46 -8.44,8.85 -1.4,3.38 -2.11,7.88 -2.11,13.47l-10.09 0 0 -135.52z"/>
  <path class="fil1" d="M888.89 7954.37l10.09 0c0,2.8 0.43,6.91 1.27,12.17 0.84,5.34 3.51,8.01 7.98,8.01 1.14,0 4.22,-0.99 9.28,-2.92 5.06,-1.96 10.65,-4.04 16.83,-6.33 6.18,-2.21 12.07,-4.47 17.69,-6.68 5.62,-2.29 9.25,-3.71 10.93,-4.24l0 -26.94c0,-6.18 -1.96,-10.06 -5.9,-11.77 -3.91,-1.7 -7.57,-2.8 -10.93,-3.38l0 -10.09 165.01 0 0 10.09c-6.18,0.59 -11.36,1.68 -15.58,3.38 -4.22,1.7 -6.3,5.59 -6.3,11.77l0 392.31c0,6.18 2.09,10.07 6.3,11.77 4.22,1.7 8.85,2.8 13.88,3.38l0 10.09 -167.5 0 0 -10.09c5.59,-0.58 10.5,-1.68 14.72,-3.38 4.22,-1.7 6.3,-5.59 6.3,-11.77l0 -267.69c-14.03,3.31 -25.39,6.18 -34.08,8.39 -8.69,2.29 -15.15,4.63 -19.37,7.17 -4.19,2.52 -7.01,5.47 -8.41,8.85 -1.4,3.38 -2.11,7.88 -2.11,13.47l-10.09 0 0 -135.55z"/>
  <path class="fil1" d="M1303.93 8181.64c11.77,-14.56 25.09,-30.96 39.98,-49.26 14.87,-18.2 30.02,-37.01 45.45,-56.4 15.45,-19.32 30.6,-38.13 45.47,-56.35 14.87,-18.27 28.06,-34.69 39.55,-49.26 11.51,-14.64 20.76,-26.56 27.78,-35.79 7.04,-9.25 10.55,-14.44 10.55,-15.61 0,-2.82 -1.42,-4.5 -4.22,-5.03 -2.79,-0.59 -6.46,-1.09 -10.95,-1.68l0 -10.09 200.36 0 0 10.09c-5.62,0.59 -9.96,1.09 -13.04,1.68 -3.1,0.53 -4.63,2.21 -4.63,5.03l0 263.52 53.02 0c3.38,0 6.74,-1.12 10.12,-3.41 3.35,-2.21 5.03,-7.27 5.03,-15.15l10.12 0 0 122.08 -10.12 0c0,-7.83 -1.68,-13.01 -5.03,-15.55 -3.38,-2.54 -6.74,-3.79 -10.12,-3.79l-53.02 0 0 53.04c0,6.18 2.08,10.07 6.3,11.77 4.19,1.7 8.57,2.8 13.04,3.38l0 10.09 -149.83 0 0 -10.09c3.91,-0.58 7.85,-1.68 11.79,-3.38 3.92,-1.7 5.87,-5.59 5.87,-11.77l0 -53.04 -238.23 0c-3.35,0 -6.74,1.24 -10.09,3.79 -3.38,2.54 -5.06,7.73 -5.06,15.55l-10.09 0 0 -104.39zm263.47 -195.33l-1.68 0 -159.95 196.19 161.63 0 0 -196.19z"/>
  <path class="fil1" d="M2886.51 5022.17c-7.88,0 -17.13,0.99 -27.78,2.95 -10.68,1.93 -20.77,5.18 -30.32,9.68 -9.53,4.5 -17.66,10.8 -24.4,18.94 -6.73,8.13 -10.11,18.35 -10.11,30.7 0,12.38 3.38,22.6 10.11,30.73 6.74,8.13 14.87,14.44 24.4,18.93 9.56,4.55 19.65,7.73 30.32,9.68 10.65,1.96 19.9,3 27.78,3 7.85,0 17.1,-1.04 27.78,-3 10.65,-1.96 20.77,-5.13 30.3,-9.68 9.53,-4.5 17.69,-10.8 24.4,-18.93 6.74,-8.14 10.11,-18.35 10.11,-30.73 0,-12.35 -3.38,-22.57 -10.11,-30.7 -6.71,-8.13 -14.87,-14.44 -24.4,-18.94 -9.53,-4.5 -19.65,-7.75 -30.3,-9.68 -10.68,-1.96 -19.93,-2.95 -27.78,-2.95zm-133.03 234.83l0 7.63c0,7.29 3.1,13.6 9.28,18.94 6.18,5.34 14.31,9.68 24.4,13.06 10.12,3.33 21.76,5.87 34.95,7.55 13.19,1.7 26.51,2.54 39.98,2.54 17.97,0 35.23,-2.39 51.77,-7.14 16.55,-4.75 31.44,-12.12 44.63,-21.93 13.17,-9.84 24.12,-21.99 32.81,-36.58 8.72,-14.64 13.9,-32 15.58,-52.23 -29.18,14.64 -55.84,25.57 -79.99,32.84 -24.12,7.3 -50.22,10.93 -78.28,10.93 -21.88,0 -42.65,-3.38 -62.3,-10.07 -19.65,-6.79 -37.03,-16.6 -52.18,-29.48 -15.18,-12.89 -27.22,-28.49 -36.2,-46.72 -9,-18.23 -13.47,-38.84 -13.47,-61.89 0,-26.94 6.3,-49.77 18.93,-68.57 12.63,-18.81 28.62,-34.09 47.99,-45.88 19.34,-11.84 40.97,-20.36 64.81,-25.7 23.87,-5.34 47,-8 69.47,-8 35.35,0 67.33,4.5 95.95,13.47 28.65,8.97 53.17,22.57 73.68,40.87 20.46,18.22 36.32,40.92 47.56,68.19 11.21,27.2 16.83,59.32 16.83,96.36 0,37.03 -7.02,70.15 -21.05,99.36 -14.03,29.15 -32.84,53.55 -56.4,73.2 -23.56,19.65 -50.94,34.36 -82.07,44.17 -31.16,9.84 -63.85,14.77 -98.08,14.77 -21.88,0 -41.94,-1.09 -60.18,-3.38 -18.25,-2.21 -34.11,-5.18 -47.56,-8.84 -13.47,-3.63 -24.14,-6.84 -32,-9.68 -7.85,-2.8 -12.63,-4.17 -14.31,-4.17 -6.74,0 -13.19,3.05 -19.37,9.23l-10.09 -4.22 66.49 -112.75 8.41 4.14z"/>
  <path class="fil1" d="M4684.33 2597.69l10.11 0c0,2.8 0.41,6.84 1.24,12.18 0.84,5.34 3.51,8.01 8.01,8.01 1.12,0 4.19,-0.99 9.25,-2.92 5.06,-1.96 10.68,-4.12 16.83,-6.33 6.18,-2.26 12.07,-4.47 17.69,-6.76 5.62,-2.21 9.25,-3.63 10.96,-4.17l0 -26.94c0,-6.18 -1.98,-10.14 -5.9,-11.77 -3.94,-1.7 -7.57,-2.87 -10.95,-3.38l0 -10.14 164.98 0 0 10.14c-6.18,0.51 -11.31,1.68 -15.55,3.38 -4.2,1.63 -6.3,5.59 -6.3,11.77l0 392.31c0,6.18 2.11,10.07 6.3,11.77 4.24,1.7 8.84,2.8 13.88,3.38l0 10.09 -167.5 0 0 -10.09c5.59,-0.59 10.52,-1.68 14.72,-3.38 4.22,-1.7 6.33,-5.59 6.33,-11.77l0 -267.69c-14.03,3.31 -25.42,6.1 -34.11,8.39 -8.69,2.21 -15.15,4.63 -19.37,7.17 -4.19,2.52 -6.99,5.46 -8.41,8.85 -1.4,3.3 -2.08,7.8 -2.08,13.47l-10.11 0 0 -135.55z"/>
  <path class="fil1" d="M5506.8 2888.94c6.76,0 11.64,-1.24 14.77,-3.78 3.07,-2.54 5.13,-7.73 6.33,-15.56l10.07 0 0 135.55 -10.07 0c-1.19,-7.88 -3.53,-12.63 -7.17,-14.31 -3.71,-1.7 -9.68,-2.54 -18.15,-2.54l-373.76 0c-5.59,0 -9.81,0.84 -12.63,2.54 -2.8,1.68 -4.22,6.43 -4.22,14.31l-10.09 0c-1.09,-24.73 2.21,-47.43 10.09,-68.19 7.88,-20.77 18.81,-39.88 32.86,-57.27 13.98,-17.44 30.45,-33.37 49.26,-48.01 18.81,-14.56 38.38,-28.04 58.89,-40.41 20.49,-12.3 41.1,-24.07 61.86,-35.33 20.77,-11.26 40.41,-22.44 58.94,-33.7 8.41,-5.01 14.59,-10.34 18.55,-15.94 3.92,-5.67 5.85,-13.22 5.85,-22.77 0,-10.68 -4.6,-20.64 -13.85,-29.87 -9.3,-9.25 -24.58,-13.85 -45.93,-13.85 -19.6,0 -38,3.05 -55.1,9.23 -17.13,6.18 -32.15,13.47 -45.04,21.86 -12.89,8.46 -23.03,16.98 -30.32,25.7 -7.29,8.72 -10.93,15.89 -10.93,21.48 0,3.38 1.09,7.55 3.38,12.63l-10.14 7.55 -89.21 -125.38 9.22 -6.79c1.7,1.7 3.86,3.25 6.33,4.63 2.54,1.45 5.46,2.16 8.84,2.16 4.5,0 11.9,-3.84 22.32,-11.39 10.42,-7.62 24.27,-15.88 41.63,-24.86 18.05,-9.5 39.04,-17.97 63.19,-25.26 24.14,-7.27 52.18,-10.93 84.2,-10.93 24.07,0 47.1,3.66 68.96,10.93 21.93,7.29 41.33,17.26 58.13,29.89 16.85,12.61 30.3,27.78 40.39,45.47 10.17,17.69 15.17,37.16 15.17,58.49 0,20.77 -4.37,38.74 -13.01,53.88 -8.72,15.17 -20.1,28.49 -34.11,40 -14.05,11.54 -29.92,21.76 -47.55,30.73 -17.69,8.97 -35.53,17.56 -53.48,25.7 -17.97,8.13 -35.07,16.39 -51.34,24.78 -16.27,8.46 -30.07,17.97 -41.25,28.64l228.12 0z"/>
  <path class="fil1" d="M7851.97 1224.72c-1.7,3.89 -2.54,8.13 -2.54,12.61 0,3.92 2.92,9 8.84,15.17 5.85,6.1 14.72,12.15 26.49,18.07 11.77,5.87 26.41,10.8 43.79,14.72 17.44,3.92 37.59,5.92 60.64,5.92 28.62,0 51.6,-5.34 69.03,-16.01 17.36,-10.68 26.08,-25.82 26.08,-45.47 0,-16.27 -7.98,-30.15 -23.99,-41.66 -16.01,-11.51 -39.45,-17.23 -70.28,-17.23 -24.15,0 -40.87,2.34 -50.1,7.09 -9.25,4.8 -13.93,9.68 -13.93,14.77 0,1.7 0.59,3.2 1.68,4.63 1.2,1.42 2.54,3.51 4.24,6.31l-5.08 9.25 -146.45 -88.38 5.92 -8.39c1.09,1.12 2.8,1.63 5.01,1.63l5.06 0c4.5,0 6.71,-2.8 6.71,-8.39l0 -141.47c0,-6.1 -1.96,-10.07 -5.85,-11.77 -3.91,-1.63 -8.13,-2.8 -12.63,-3.33l0 -10.14 372.05 0c3.38,0 6.76,-1.25 10.14,-3.76 3.33,-2.54 5.03,-8.29 5.03,-17.26l10.14 0 0 131.3 -10.14 0c0,-8.39 -1.7,-13.98 -5.03,-16.85 -3.38,-2.79 -6.76,-4.17 -10.14,-4.17l-244.13 0 0 73.2c19.65,-6.18 38.79,-10.47 57.27,-13.01 18.53,-2.52 37.59,-3.76 57.26,-3.76 23.54,0 46.26,2.67 68.17,8 21.88,5.26 41.28,13.85 58.13,25.62 16.77,11.79 30.25,26.94 40.39,45.5 10.09,18.48 15.1,41.25 15.1,68.19 0,24.12 -5.59,45.72 -16.77,64.79 -11.26,19.09 -26.94,35.2 -47.18,48.42 -20.18,13.22 -44.33,23.03 -72.36,29.48 -28.11,6.43 -58.94,9.63 -92.64,9.63 -23.56,0 -44.91,-1.24 -63.97,-3.78 -19.06,-2.54 -36.17,-5.85 -51.34,-10.09 -15.15,-4.22 -28.04,-8.51 -38.71,-13.06 -10.68,-4.42 -19.39,-8.13 -26.08,-10.93 -3.99,-1.7 -7.63,-3.2 -10.96,-4.63 -3.38,-1.37 -5.92,-2.09 -7.6,-2.09 -2.8,0 -7.04,1.96 -12.63,5.85l-10.09 -5.01 84.21 -127.14 9.25 7.63z"/>
  <path class="fil2" d="M20195.38 6924.88c-470.19,-922.79 -1082.66,-1765.79 -1815,-2498.13l-6978.93 6978.86 8793.93 -4480.73z"/>
  <path class="fil3" d="M21171.13 12933.98c162.01,-1022.93 162.01,-2064.97 0,-3087.9l-9748.14 1543.98 9748.14 1543.93z"/>
  <path class="fil4" d="M20219.78 15870.73c470.16,-922.79 792.19,-1913.82 954.2,-2936.75l-9748.14 -1543.98 8793.93 4480.73z"/>
  <path class="fil3" d="M18404.73 18368.93c732.31,-732.34 1344.86,-1575.34 1815.05,-2498.21l-8793.93 -4480.73 6978.88 6978.93z"/>
  <path class="fil4" d="M15906.57 20183.96c922.79,-470.19 1765.87,-1082.71 2498.16,-1815.02l-6978.88 -6978.93 4480.73 8793.96z"/>
  <path class="fil3" d="M12969.82 21138.16c1022.93,-162.01 2013.99,-484.02 2936.75,-954.2l-4480.73 -8793.96 1543.98 9748.16z"/>
  <path class="fil4" d="M9881.94 21138.16c1022.9,162.03 2064.9,162.03 3087.88,0l-1543.98 -9748.16 -1543.9 9748.16z"/>
  <path class="fil3" d="M6945.12 20183.96c922.79,470.19 1913.9,792.19 2936.83,954.2l1543.9 -9748.16 -4480.73 8793.96z"/>
  <path class="fil4" d="M4446.96 18368.93c732.36,732.31 1575.37,1344.84 2498.16,1815.02l4480.73 -8793.96 -6978.88 6978.93z"/>
  <path class="fil3" d="M2631.93 15870.73c470.19,922.86 1082.69,1765.87 1815.02,2498.21l6978.88 -6978.93 -8793.91 4480.73z"/>
  <path class="fil4" d="M1677.71 12933.98c162.01,1022.93 484.04,2013.96 954.23,2936.75l8793.91 -4480.73 -9748.14 1543.98z"/>
  <path class="fil3" d="M1677.71 9846.07c-162.01,1022.93 -162.01,2064.97 0,3087.9l9748.14 -1543.98 -9748.14 -1543.93z"/>
  <path class="fil4" d="M2631.93 6909.32c-470.19,922.79 -792.22,1913.82 -954.23,2936.75l9748.14 1543.93 -8793.91 -4480.68z"/>
  <path class="fil3" d="M4446.96 4411.12c-732.34,732.34 -1344.84,1575.37 -1815.02,2498.21l8793.91 4480.68 -6978.88 -6978.88z"/>
  <path class="fil4" d="M6945.12 2596.14c-922.79,470.16 -1765.79,1082.66 -2498.16,1814.97l6978.88 6978.88 -4480.73 -8793.86z"/>
  <path class="fil3" d="M9881.94 1641.86c-1022.93,162.01 -2014.04,484.04 -2936.83,954.28l4480.73 8793.86 -1543.9 -9748.14z"/>
  <path class="fil4" d="M12969.82 1641.86c-1022.98,-161.96 -2064.97,-161.96 -3087.88,0l1543.9 9748.14 1543.98 -9748.14z"/>
  <path class="fil3" d="M15906.57 2596.14c-922.76,-470.24 -1913.82,-792.27 -2936.75,-954.28l-1543.98 9748.14 4480.73 -8793.86z"/>
  <path class="fil4" d="M18404.73 4411.12c-732.29,-732.31 -1575.37,-1344.81 -2498.16,-1814.97l-4480.73 8793.86 6978.88 -6978.88z"/>
  <path class="fil3" d="M20219.78 6909.32c-470.19,-922.84 -1082.74,-1765.87 -1815.05,-2498.21l-6978.88 6978.88 8793.93 -4480.68z"/>
  <path class="fil4" d="M21173.98 9846.07c-162.01,-1022.93 -484.04,-2013.96 -954.2,-2936.75l-8793.93 4480.68 9748.14 -1543.93z"/>
  <path class="fil5" d="M20123.55 12768.05c144.57,-913.03 144.57,-1843.03 0,-2756.06l-8700.42 1378.05 8700.42 1378.01z"/>
  <path class="fil0" d="M19274.42 15389.15c419.68,-823.61 707.07,-1708.15 851.64,-2621.1l-8700.35 -1378.05 7848.7 3999.15z"/>
  <path class="fil5" d="M17654.49 17618.83c653.6,-653.67 1200.29,-1406.04 1619.92,-2229.68l-7848.7 -3999.15 6228.78 6228.83z"/>
  <path class="fil0" d="M15424.82 19238.75c823.64,-419.63 1576.08,-966.33 2229.68,-1619.92l-6228.78 -6228.83 3999.1 7848.75z"/>
  <path class="fil5" d="M12803.72 20090.42c912.95,-144.6 1797.49,-432.01 2621.1,-851.67l-3999.1 -7848.75 1378.01 8700.42z"/>
  <path class="fil0" d="M10047.66 20090.42c913.03,144.6 1843.03,144.6 2756.06,0l-1378.01 -8700.42 -1378.05 8700.42z"/>
  <path class="fil5" d="M7426.54 19238.75c823.64,419.66 1708.15,707.08 2621.12,851.67l1378.05 -8700.42 -3999.18 7848.75z"/>
  <path class="fil0" d="M5196.89 17618.83c653.67,653.6 1406.09,1200.29 2229.65,1619.92l3999.18 -7848.75 -6228.83 6228.83z"/>
  <path class="fil5" d="M3576.96 15389.15c419.66,823.64 966.33,1576 1619.92,2229.68l6228.83 -6228.83 -7848.75 3999.15z"/>
  <path class="fil0" d="M2725.29 12768.05c144.62,912.95 432.01,1797.49 851.67,2621.1l7848.75 -3999.15 -8700.42 1378.05z"/>
  <path class="fil5" d="M2725.29 10011.99c-144.6,913.03 -144.6,1843.03 0,2756.06l8700.42 -1378.05 -8700.42 -1378.01z"/>
  <path class="fil0" d="M3576.96 7390.9c-419.66,823.61 -707.05,1708.15 -851.67,2621.1l8700.42 1378.01 -7848.75 -3999.1z"/>
  <path class="fil5" d="M5196.89 5161.22c-653.6,653.6 -1200.26,1406.04 -1619.92,2229.68l7848.75 3999.1 -6228.83 -6228.78z"/>
  <path class="fil0" d="M7426.54 3541.3c-823.56,419.63 -1575.98,966.33 -2229.65,1619.92l6228.83 6228.78 -3999.18 -7848.7z"/>
  <path class="fil5" d="M10047.66 2689.63c-912.98,144.6 -1797.49,431.99 -2621.12,851.67l3999.18 7848.7 -1378.05 -8700.37z"/>
  <path class="fil0" d="M12803.72 2689.63c-913.03,-144.57 -1843.03,-144.57 -2756.06,0l1378.05 8700.37 1378.01 -8700.37z"/>
  <path class="fil5" d="M15424.82 3541.3c-823.61,-419.68 -1708.15,-707.07 -2621.1,-851.67l-1378.01 8700.37 3999.1 -7848.7z"/>
  <path class="fil0" d="M17654.49 5161.22c-653.6,-653.6 -1406.04,-1200.29 -2229.68,-1619.92l-3999.1 7848.7 6228.78 -6228.78z"/>
  <path class="fil5" d="M19274.42 7390.9c-419.63,-823.64 -966.33,-1576.08 -1619.92,-2229.68l-6228.78 6228.78 7848.7 -3999.1z"/>
  <path class="fil0" d="M20126.06 10011.99c-144.57,-912.95 -431.96,-1797.49 -851.64,-2621.1l-7848.7 3999.1 8700.35 -1378.01z"/>
  <path class="fil2" d="M16231.32 8942.93c-257.65,-505.77 -593.33,-967.8 -994.67,-1369.13l-3824.79 3824.79 4819.46 -2455.66z"/>
  <path class="fil3" d="M16766.07 12236.2c88.81,-560.62 88.81,-1131.74 0,-1692.34l-5342.44 846.18 5342.44 846.16z"/>
  <path class="fil4" d="M16244.67 13845.71c257.73,-505.77 434.2,-1048.88 523.03,-1609.5l-5342.49 -846.2 4819.46 2455.71z"/>
  <path class="fil3" d="M15250 15214.79c401.33,-401.33 737.01,-863.39 994.67,-1369.08l-4819.46 -2455.71 3824.79 3824.79z"/>
  <path class="fil4" d="M13880.84 16209.53c505.77,-257.68 967.8,-593.36 1369.16,-994.74l-3824.79 -3824.79 2455.63 4819.53z"/>
  <path class="fil3" d="M12271.34 16732.49c560.62,-88.83 1103.81,-265.28 1609.5,-522.95l-2455.63 -4819.53 846.13 5342.49z"/>
  <path class="fil4" d="M10579.05 16732.49c560.62,88.81 1131.71,88.81 1692.29,0l-846.13 -5342.49 -846.16 5342.49z"/>
  <path class="fil3" d="M8969.55 16209.53c505.72,257.68 1048.88,434.12 1609.5,522.95l846.16 -5342.49 -2455.66 4819.53z"/>
  <path class="fil4" d="M7600.41 15214.79c401.38,401.38 863.36,737.07 1369.13,994.74l2455.66 -4819.53 -3824.79 3824.79z"/>
  <path class="fil3" d="M6605.72 13845.71c257.68,505.7 593.36,967.75 994.69,1369.08l3824.79 -3824.79 -4819.49 2455.71z"/>
  <path class="fil4" d="M6082.77 12236.2c88.76,560.62 265.23,1103.73 522.95,1609.5l4819.49 -2455.71 -5342.44 846.2z"/>
  <path class="fil3" d="M6082.77 10543.87c-88.81,560.6 -88.81,1131.71 0,1692.34l5342.44 -846.2 -5342.44 -846.13z"/>
  <path class="fil4" d="M6605.72 8934.34c-257.73,505.77 -434.2,1048.91 -522.95,1609.53l5342.44 846.13 -4819.49 -2455.66z"/>
  <path class="fil3" d="M7600.41 7565.26c-401.33,401.33 -737.01,863.39 -994.69,1369.08l4819.49 2455.66 -3824.79 -3824.74z"/>
  <path class="fil4" d="M8969.55 6570.51c-505.77,257.68 -967.75,593.36 -1369.13,994.74l3824.79 3824.74 -2455.66 -4819.48z"/>
  <path class="fil3" d="M10579.05 6047.56c-560.62,88.83 -1103.78,265.3 -1609.5,522.95l2455.66 4819.48 -846.16 -5342.44z"/>
  <path class="fil4" d="M12271.34 6047.56c-560.57,-88.81 -1131.66,-88.81 -1692.29,0l846.16 5342.44 846.13 -5342.44z"/>
  <path class="fil3" d="M13880.84 6570.51c-505.7,-257.65 -1048.88,-434.12 -1609.5,-522.95l-846.13 5342.44 2455.63 -4819.48z"/>
  <path class="fil4" d="M15250 7565.26c-401.36,-401.38 -863.39,-737.07 -1369.16,-994.74l-2455.63 4819.48 3824.79 -3824.74z"/>
  <path class="fil3" d="M16244.67 8934.34c-257.65,-505.7 -593.33,-967.75 -994.67,-1369.08l-3824.79 3824.74 4819.46 -2455.66z"/>
  <path class="fil4" d="M16767.7 10543.87c-88.83,-560.62 -265.3,-1103.76 -523.03,-1609.53l-4819.46 2455.66 5342.49 -846.13z"/>
  <path class="fil0" d="M15387.23 9372.66c-212.46,-416.96 -489.2,-797.86 -820.05,-1128.74l-3153.1 3153.18 3973.15 -2024.43z"/>
  <path class="fil5" d="M15828.06 12087.59c73.2,-462.18 73.2,-932.95 0,-1395.11l-4404.3 697.57 4404.3 697.54z"/>
  <path class="fil0" d="M15398.28 13414.43c212.38,-416.89 357.87,-864.68 431.07,-1326.84l-4404.3 -697.59 3973.23 2024.43z"/>
  <path class="fil5" d="M14578.23 14543.15c330.88,-330.85 607.59,-711.75 820.05,-1128.71l-3973.23 -2024.43 3153.18 3153.15z"/>
  <path class="fil0" d="M13449.51 15363.2c416.94,-212.43 797.79,-489.17 1128.71,-820.05l-3153.18 -3153.15 2024.46 3973.2z"/>
  <path class="fil5" d="M12122.65 15794.35c462.18,-73.2 909.9,-218.71 1326.87,-431.15l-2024.46 -3973.2 697.6 4404.35z"/>
  <path class="fil0" d="M10727.49 15794.35c462.16,73.2 933,73.2 1395.16,0l-697.6 -4404.35 -697.57 4404.35z"/>
  <path class="fil5" d="M9400.62 15363.2c416.97,212.43 864.69,357.95 1326.87,431.15l697.57 -4404.35 -2024.43 3973.2z"/>
  <path class="fil0" d="M8271.91 14543.15c330.93,330.88 711.78,607.62 1128.71,820.05l2024.43 -3973.2 -3153.15 3153.15z"/>
  <path class="fil5" d="M7451.85 13414.43c212.46,416.96 489.17,797.86 820.05,1128.71l3153.15 -3153.15 -3973.2 2024.43z"/>
  <path class="fil0" d="M7020.73 12087.59c73.2,462.16 218.69,909.95 431.12,1326.84l3973.2 -2024.43 -4404.32 697.59z"/>
  <path class="fil5" d="M7020.73 10692.48c-73.2,462.16 -73.2,932.93 0,1395.11l4404.32 -697.59 -4404.32 -697.52z"/>
  <path class="fil0" d="M7451.85 9365.62c-212.43,416.89 -357.92,864.69 -431.12,1326.87l4404.32 697.52 -3973.2 -2024.38z"/>
  <path class="fil5" d="M8271.91 8236.9c-330.88,330.85 -607.59,711.78 -820.05,1128.71l3973.2 2024.38 -3153.15 -3153.1z"/>
  <path class="fil0" d="M9400.62 7416.85c-416.94,212.43 -797.79,489.17 -1128.71,820.05l3153.15 3153.1 -2024.43 -3973.15z"/>
  <path class="fil5" d="M10727.49 6985.7c-462.18,73.2 -909.9,218.71 -1326.87,431.15l2024.43 3973.15 -697.57 -4404.3z"/>
  <path class="fil0" d="M12122.65 6985.7c-462.16,-73.2 -933.01,-73.2 -1395.16,0l697.57 4404.3 697.6 -4404.3z"/>
  <path class="fil5" d="M13449.51 7416.85c-416.96,-212.43 -864.68,-357.95 -1326.87,-431.15l-697.6 4404.3 2024.46 -3973.15z"/>
  <path class="fil0" d="M14578.23 8236.9c-330.93,-330.88 -711.78,-607.62 -1128.71,-820.05l-2024.46 3973.15 3153.18 -3153.1z"/>
  <path class="fil5" d="M15398.28 9365.62c-212.46,-416.94 -489.17,-797.86 -820.05,-1128.71l-3153.18 3153.1 3973.23 -2024.38z"/>
  <path class="fil0" d="M15829.35 10692.48c-73.2,-462.18 -218.69,-909.98 -431.07,-1326.87l-3973.23 2024.38 4404.3 -697.52z"/>
  <path class="fil3" d="M10213.63 11198.23c20.18,-127.06 60.14,-250.23 118.57,-364.81 58.43,-114.66 134.48,-219.43 225.52,-310.39 90.97,-90.97 195.66,-167.09 310.29,-225.45 114.66,-58.43 237.78,-98.44 364.84,-118.55 127.08,-20.18 256.56,-20.18 383.64,0 127.08,20.11 250.18,60.11 364.84,118.55 114.65,58.36 219.35,134.48 310.37,225.45 90.97,90.97 167.04,195.74 225.47,310.39 58.41,114.58 98.36,237.75 118.55,364.81l-0.33 0.08c20.1,127.01 20.1,256.43 0,383.52l0.33 0c-20.18,127.06 -60.14,250.23 -118.55,364.84 -58.43,114.63 -134.51,219.4 -225.47,310.37 -91.02,90.97 -195.71,167.09 -310.37,225.45 -114.66,58.43 -237.75,98.44 -364.84,118.55 -127.09,20.18 -256.56,20.18 -383.64,0 -127.06,-20.1 -250.18,-60.11 -364.84,-118.55 -114.63,-58.36 -219.32,-134.48 -310.29,-225.45 -91.04,-90.97 -167.09,-195.74 -225.52,-310.37 -58.43,-114.61 -98.39,-237.78 -118.57,-364.84 -20.1,-127.08 -20.1,-256.51 0,-383.59z"/>
  <path class="fil4" d="M10923.02 11310.55c8.31,-52.64 24.91,-103.6 49.11,-151.08 24.22,-47.51 55.71,-90.92 93.43,-128.59 37.69,-37.67 81.03,-69.23 128.51,-93.43 47.51,-24.15 98.52,-40.74 151.15,-49.05 52.64,-8.34 106.27,-8.34 158.91,0 52.64,8.31 103.65,24.91 151.15,49.05 47.5,24.2 90.89,55.77 128.56,93.43 37.7,37.67 69.19,81.08 93.38,128.59 24.2,47.48 40.79,98.44 49.13,151.08l-0.13 0.08c8.31,52.64 8.31,106.17 0,158.83l0.13 0.05c-8.34,52.64 -24.93,103.65 -49.13,151.08 -24.2,47.51 -55.69,90.92 -93.38,128.59 -37.67,37.67 -81.05,69.23 -128.56,93.43 -47.51,24.15 -98.52,40.74 -151.15,49.05 -52.64,8.34 -106.27,8.34 -158.91,0 -52.64,-8.31 -103.65,-24.91 -151.15,-49.05 -47.48,-24.2 -90.81,-55.76 -128.51,-93.43 -37.72,-37.67 -69.21,-81.08 -93.43,-128.59 -24.2,-47.43 -40.79,-98.44 -49.11,-151.08 -8.34,-52.64 -8.34,-106.32 0,-158.96z"/>
 </g>
</svg>
